<?xml version="1.0" ?><svg viewBox="0 0 512 512" xmlns="http://www.w3.org/2000/svg"><g id="Tarot"><path d="M308.51,46H107.2342A30.6124,30.6124,0,0,0,76.6263,76.6143V435.3857A30.6124,30.6124,0,0,0,107.2342,466H308.51a30.6142,30.6142,0,0,0,30.6164-30.6143V76.6143A30.6142,30.6142,0,0,0,308.51,46ZM107.2513,89.7479a13.1256,13.1256,0,0,1,13.125-13.125h43.75a13.125,13.125,0,0,1,0,26.25h-30.625v30.625a13.125,13.125,0,0,1-26.25,0Zm56.875,345.625h-43.75a13.1257,13.1257,0,0,1-13.125-13.125v-43.75a13.125,13.125,0,1,1,26.25,0v30.625h30.625a13.125,13.125,0,0,1,0,26.25Zm55.2-108.2813a13.2259,13.2259,0,0,1-22.9089,0l-14.7955-25.6262H152.0353a13.2283,13.2283,0,0,1-11.4588-19.84L155.3721,256l-14.7956-25.6241a13.2289,13.2289,0,0,1,11.4588-19.8413h29.5868l14.7955-25.6262a13.2259,13.2259,0,0,1,22.9089,0l14.7956,25.6262h29.591a13.2271,13.2271,0,0,1,11.4545,19.8413L260.3721,256l14.7955,25.6252a13.2265,13.2265,0,0,1-11.4545,19.84h-29.591Zm89.1748,95.1563a13.1257,13.1257,0,0,1-13.125,13.125h-43.75a13.125,13.125,0,1,1,0-26.25h30.625v-30.625a13.125,13.125,0,1,1,26.25,0Zm0-288.75a13.125,13.125,0,0,1-26.25,0v-30.625h-30.625a13.125,13.125,0,0,1,0-26.25h43.75a13.1256,13.1256,0,0,1,13.125,13.125Z"/><path d="M415.2189,107.9432,365.3763,89.8023V334.4082l68.1415-187.2256A30.61,30.61,0,0,0,415.2189,107.9432Z"/></g></svg>