<svg width="400" height="400" viewBox="0 0 400 400" xmlns="http://www.w3.org/2000/svg">
  <circle cx="30" cy="30" r="1" fill="white" opacity="0.8" />
  <circle cx="60" cy="60" r="0.8" fill="white" opacity="0.6" />
  <circle cx="90" cy="40" r="1.2" fill="white" opacity="0.7" />
  <circle cx="120" cy="80" r="0.6" fill="white" opacity="0.5" />
  <circle cx="150" cy="30" r="1" fill="white" opacity="0.8" />
  <circle cx="180" cy="70" r="0.7" fill="white" opacity="0.6" />
  <circle cx="210" cy="50" r="1.1" fill="white" opacity="0.7" />
  <circle cx="240" cy="90" r="0.5" fill="white" opacity="0.5" />
  <circle cx="270" cy="20" r="0.9" fill="white" opacity="0.8" />
  <circle cx="300" cy="60" r="0.8" fill="white" opacity="0.6" />
  <circle cx="330" cy="40" r="1.2" fill="white" opacity="0.7" />
  <circle cx="360" cy="80" r="0.6" fill="white" opacity="0.5" />
  
  <circle cx="40" cy="110" r="0.7" fill="white" opacity="0.6" />
  <circle cx="70" cy="130" r="1.1" fill="white" opacity="0.7" />
  <circle cx="100" cy="150" r="0.5" fill="white" opacity="0.5" />
  <circle cx="130" cy="170" r="0.9" fill="white" opacity="0.8" />
  <circle cx="160" cy="190" r="0.8" fill="white" opacity="0.6" />
  <circle cx="190" cy="110" r="1.2" fill="white" opacity="0.7" />
  <circle cx="220" cy="130" r="0.6" fill="white" opacity="0.5" />
  <circle cx="250" cy="150" r="1" fill="white" opacity="0.8" />
  <circle cx="280" cy="170" r="0.7" fill="white" opacity="0.6" />
  <circle cx="310" cy="190" r="1.1" fill="white" opacity="0.7" />
  <circle cx="340" cy="110" r="0.5" fill="white" opacity="0.5" />
  <circle cx="370" cy="130" r="0.9" fill="white" opacity="0.8" />
  
  <circle cx="20" cy="210" r="0.8" fill="white" opacity="0.6" />
  <circle cx="50" cy="230" r="1.2" fill="white" opacity="0.7" />
  <circle cx="80" cy="250" r="0.6" fill="white" opacity="0.5" />
  <circle cx="110" cy="270" r="1" fill="white" opacity="0.8" />
  <circle cx="140" cy="290" r="0.7" fill="white" opacity="0.6" />
  <circle cx="170" cy="210" r="1.1" fill="white" opacity="0.7" />
  <circle cx="200" cy="230" r="0.5" fill="white" opacity="0.5" />
  <circle cx="230" cy="250" r="0.9" fill="white" opacity="0.8" />
  <circle cx="260" cy="270" r="0.8" fill="white" opacity="0.6" />
  <circle cx="290" cy="290" r="1.2" fill="white" opacity="0.7" />
  <circle cx="320" cy="210" r="0.6" fill="white" opacity="0.5" />
  <circle cx="350" cy="230" r="1" fill="white" opacity="0.8" />
  <circle cx="380" cy="250" r="0.7" fill="white" opacity="0.6" />
  
  <circle cx="30" cy="310" r="1.1" fill="white" opacity="0.7" />
  <circle cx="60" cy="330" r="0.5" fill="white" opacity="0.5" />
  <circle cx="90" cy="350" r="0.9" fill="white" opacity="0.8" />
  <circle cx="120" cy="370" r="0.8" fill="white" opacity="0.6" />
  <circle cx="150" cy="310" r="1.2" fill="white" opacity="0.7" />
  <circle cx="180" cy="330" r="0.6" fill="white" opacity="0.5" />
  <circle cx="210" cy="350" r="1" fill="white" opacity="0.8" />
  <circle cx="240" cy="370" r="0.7" fill="white" opacity="0.6" />
  <circle cx="270" cy="310" r="1.1" fill="white" opacity="0.7" />
  <circle cx="300" cy="330" r="0.5" fill="white" opacity="0.5" />
  <circle cx="330" cy="350" r="0.9" fill="white" opacity="0.8" />
  <circle cx="360" cy="370" r="0.8" fill="white" opacity="0.6" />
</svg>

